<?xml version="1.0" encoding="utf-8"?>
<!-- Generator: Adobe Illustrator 23.0.2, SVG Export Plug-In . SVG Version: 6.00 Build 0)  -->
<svg version="1.1" id="close2" xmlns="http://www.w3.org/2000/svg" xmlns:xlink="http://www.w3.org/1999/xlink" x="0px" y="0px"
	 viewBox="0 0 24 24" style="enable-background:new 0 0 24 24;" xml:space="preserve">
<path d="M24,24.5c-0.1,0-0.3,0-0.4-0.1l-24-24c-0.2-0.2-0.2-0.5,0-0.7s0.5-0.2,0.7,0l24,24c0.2,0.2,0.2,0.5,0,0.7
	C24.3,24.5,24.1,24.5,24,24.5z"/>
<path d="M0,24.5c-0.1,0-0.3,0-0.4-0.1c-0.2-0.2-0.2-0.5,0-0.7l24-24c0.2-0.2,0.5-0.2,0.7,0s0.2,0.5,0,0.7l-24,24
	C0.3,24.5,0.1,24.5,0,24.5z"/>
</svg>
