<svg xmlns="http://www.w3.org/2000/svg" width="14.233" height="14.23" viewBox="0 0 14.233 14.23">
  <path id="Instagram" d="M7.113,5.7a3.648,3.648,0,1,0,3.648,3.648A3.643,3.643,0,0,0,7.113,5.7Zm0,6.02A2.372,2.372,0,1,1,9.485,9.352,2.376,2.376,0,0,1,7.113,11.724Zm4.648-6.169A.851.851,0,1,1,10.91,4.7.849.849,0,0,1,11.761,5.555Zm2.416.864a4.211,4.211,0,0,0-1.149-2.981,4.239,4.239,0,0,0-2.981-1.149c-1.175-.067-4.7-.067-5.871,0A4.233,4.233,0,0,0,1.194,3.434,4.225,4.225,0,0,0,.045,6.415c-.067,1.175-.067,4.7,0,5.871a4.211,4.211,0,0,0,1.149,2.981,4.244,4.244,0,0,0,2.981,1.149c1.175.067,4.7.067,5.871,0a4.211,4.211,0,0,0,2.981-1.149,4.239,4.239,0,0,0,1.149-2.981c.067-1.175.067-4.693,0-5.868ZM12.66,13.547A2.4,2.4,0,0,1,11.307,14.9a15.682,15.682,0,0,1-4.194.286A15.8,15.8,0,0,1,2.918,14.9a2.4,2.4,0,0,1-1.353-1.353A15.682,15.682,0,0,1,1.28,9.352a15.8,15.8,0,0,1,.286-4.194A2.4,2.4,0,0,1,2.918,3.805,15.682,15.682,0,0,1,7.113,3.52a15.8,15.8,0,0,1,4.194.286A2.4,2.4,0,0,1,12.66,5.158a15.682,15.682,0,0,1,.286,4.194A15.673,15.673,0,0,1,12.66,13.547Z" transform="translate(0.005 -2.238)"/>
</svg>
