<?xml version="1.0" encoding="utf-8"?>
<!-- Generator: Adobe Illustrator 23.0.2, SVG Export Plug-In . SVG Version: 6.00 Build 0)  -->
<svg version="1.1" id="Réteg_1" xmlns="http://www.w3.org/2000/svg" xmlns:xlink="http://www.w3.org/1999/xlink" x="0px" y="0px"
	 viewBox="0 0 17.5 14.2" style="enable-background:new 0 0 17.5 14.2;" xml:space="preserve">
<path id="Icon_awesome-twitter" class="st0" d="M15.7,3.5c0,0.2,0,0.3,0,0.5c0,5.6-4.5,10.2-10.1,10.2c0,0-0.1,0-0.1,0
	c-1.9,0-3.9-0.6-5.5-1.6c0.3,0,0.6,0,0.9,0c1.6,0,3.2-0.5,4.4-1.5c-1.5,0-2.9-1-3.3-2.5c0.2,0,0.5,0.1,0.7,0.1c0.3,0,0.6,0,0.9-0.1
	C1.9,8.2,0.7,6.7,0.7,5v0c0.5,0.3,1.1,0.4,1.6,0.5C0.8,4.4,0.3,2.3,1.2,0.7C3,2.9,5.7,4.3,8.6,4.4C8.6,4.1,8.5,3.9,8.5,3.6
	c0-2,1.6-3.6,3.6-3.6c1,0,1.9,0.4,2.6,1.1C15.5,1,16.3,0.7,17,0.3c-0.3,0.8-0.8,1.5-1.6,2c0.7-0.1,1.4-0.3,2.1-0.6
	C17,2.4,16.4,3,15.7,3.5L15.7,3.5z"/>
</svg>
