<?xml version="1.0" encoding="utf-8"?>
<!-- Generator: Adobe Illustrator 23.0.2, SVG Export Plug-In . SVG Version: 6.00 Build 0)  -->
<svg version="1.1" id="Réteg_1" xmlns="http://www.w3.org/2000/svg" xmlns:xlink="http://www.w3.org/1999/xlink" x="0px" y="0px"
	 viewBox="0 0 15.5 15.5" style="enable-background:new 0 0 15.5 15.5;" xml:space="preserve">
<path id="Icon_simple-whatsapp" d="M11.3,9.3c-0.2-0.1-1.1-0.6-1.3-0.6S9.7,8.6,9.6,8.8S9.1,9.4,9,9.5s-0.2,0.1-0.4,0
	C8,9.4,7.4,9,7,8.6C6.6,8.2,6.2,7.8,5.9,7.3C5.8,7.1,5.9,7,6,6.9s0.2-0.2,0.3-0.3c0.1-0.1,0.1-0.2,0.2-0.3c0.1-0.1,0-0.2,0-0.3
	c0-0.1-0.4-1-0.6-1.4S5.6,4.1,5.4,4.1s-0.2,0-0.4,0c-0.2,0-0.4,0.1-0.5,0.2C4.1,4.8,3.9,5.3,3.9,6c0.1,0.7,0.3,1.4,0.8,2
	c0.8,1.2,2,2.2,3.3,2.9c0.5,0.2,0.8,0.3,1.1,0.4c0.4,0.1,0.8,0.1,1.2,0.1c0.5-0.1,1-0.4,1.3-0.9c0.1-0.3,0.2-0.6,0.1-0.9
	C11.7,9.4,11.5,9.3,11.3,9.3 M7.8,14.1L7.8,14.1c-1.2,0-2.3-0.3-3.3-0.9l-0.2-0.1l-2.4,0.6l0.7-2.4l-0.2-0.2c-1.9-3-0.9-7,2.1-8.8
	c2.5-1.6,5.8-1.2,7.9,0.9c1.2,1.2,1.9,2.8,1.9,4.5C14.2,11.2,11.4,14.1,7.8,14.1 M13.3,2.2C11.8,0.8,9.9,0,7.8,0
	C3.5,0,0.1,3.4,0.1,7.7c0,1.4,0.4,2.7,1,3.9l-1.1,4l4.1-1.1c1.1,0.6,2.4,0.9,3.7,0.9l0,0c4.3,0,7.7-3.4,7.7-7.7
	C15.5,5.7,14.7,3.7,13.3,2.2"/>
</svg>
