<svg xmlns="http://www.w3.org/2000/svg" width="12.192" height="14.228" viewBox="0 0 12.192 14.228">
  <path id="Xing" d="M5.167,7.9q-.086.157-2.226,3.921a.667.667,0,0,1-.562.4H.312a.3.3,0,0,1-.27-.457L2.233,7.911q.01,0,0-.01L.839,5.5a.282.282,0,0,1,.27-.448H3.176a.658.658,0,0,1,.572.387Zm6.982-5.2L7.577,10.731v.01l2.908,5.29a.284.284,0,0,1-.27.448H8.145a.632.632,0,0,1-.572-.387L4.64,10.74q.157-.276,4.6-8.1a.64.64,0,0,1,.556-.387h2.086a.289.289,0,0,1,.27.448Z" transform="translate(-0.002 -2.25)"/>
</svg>
